<svg xmlns="http://www.w3.org/2000/svg" aria-hidden="true" style="position:absolute;width:0;height:0;overflow:hidden">
  <defs>
    <symbol id="logo" viewBox="0 0 123 25" fill="none">
      <path fill-rule="evenodd" clip-rule="evenodd" d="M50.6463 5.37148C49.8866 4.90901 48.9784 4.67778 47.9215 4.67778C46.7821 4.67778 45.7624 4.95287 44.8624 5.50304C43.9624 6.05321 43.2524 6.84258 42.7322 7.87117C42.212 8.89975 41.9519 10.1157 41.9519 11.519C41.9519 12.9064 42.212 14.1184 42.7322 15.155C43.2524 16.1915 43.9624 16.9849 44.8624 17.535C45.7624 18.0852 46.7821 18.3603 47.9215 18.3603C48.9784 18.3603 49.8866 18.1291 50.6463 17.6666C51.4059 17.2041 51.9591 16.5742 52.3059 15.7769V18.1929H56.5416V0.491699H52.3059V7.26119C51.9591 6.46384 51.4059 5.83394 50.6463 5.37148ZM4.97008 18.1928V12.2606H7.59572C8.96634 12.2606 10.1305 12.0253 11.0883 11.5549C12.0461 11.0845 12.7686 10.4386 13.2557 9.61734C13.7429 8.79607 13.9864 7.85919 13.9864 6.80669C13.9864 5.1163 13.4415 3.77278 12.3516 2.77609C11.2617 1.7794 9.67642 1.28106 7.59572 1.28106H0.734375V18.1928H4.97008ZM9.67631 6.80671C9.67631 8.25789 8.82587 8.98347 7.12498 8.98347H4.96997V4.5821H7.12498C8.82587 4.5821 9.67631 5.32363 9.67631 6.80671ZM20.3028 7.35686C20.8312 6.54356 21.5124 5.89772 22.3463 5.41931C23.1803 4.94089 24.0844 4.70169 25.0587 4.70169V9.07914H23.8449C22.722 9.07914 21.8509 9.31037 21.2317 9.77283C20.6124 10.2353 20.3028 11.0167 20.3028 12.117V18.1928H16.0671V4.84521H20.3028V7.35686ZM36.9853 5.50302C35.9037 4.95285 34.6776 4.67776 33.307 4.67776C31.9363 4.67776 30.7061 4.95285 29.6162 5.50302C28.5263 6.05319 27.6717 6.84655 27.0525 7.88311C26.4332 8.91967 26.1236 10.1316 26.1236 11.519C26.1236 12.9064 26.4332 14.1184 27.0525 15.1549C27.6717 16.1915 28.5263 16.9848 29.6162 17.535C30.7061 18.0852 31.9363 18.3603 33.307 18.3603C34.6776 18.3603 35.9037 18.0852 36.9853 17.535C38.067 16.9848 38.9174 16.1915 39.5367 15.1549C40.1559 14.1184 40.4655 12.9064 40.4655 11.519C40.4655 10.1316 40.1559 8.91967 39.5367 7.88311C38.9174 6.84655 38.067 6.05319 36.9853 5.50302ZM33.3072 8.21799C32.498 8.21799 31.8168 8.50104 31.2636 9.06716C30.7104 9.63329 30.4338 10.4506 30.4338 11.519C30.4338 12.5875 30.7104 13.4008 31.2636 13.9589C31.8168 14.5171 32.498 14.7961 33.3072 14.7961C34.1163 14.7961 34.7934 14.5171 35.3383 13.9589C35.8833 13.4008 36.1557 12.5875 36.1557 11.519C36.1557 10.4506 35.8833 9.63329 35.3383 9.06716C34.7934 8.50104 34.1163 8.21799 33.3072 8.21799ZM49.2837 8.26584C48.3755 8.26584 47.6447 8.55289 47.0915 9.12698C46.5383 9.70107 46.2617 10.4984 46.2617 11.519C46.2617 12.5396 46.5383 13.337 47.0915 13.9111C47.6447 14.4852 48.3755 14.7722 49.2837 14.7722C50.1754 14.7722 50.9061 14.4772 51.4759 13.8872C52.0456 13.2971 52.3304 12.5077 52.3304 11.519C52.3304 10.5144 52.0456 9.72101 51.4759 9.13894C50.9061 8.55687 50.1754 8.26584 49.2837 8.26584ZM68.9513 18.1928H73.2118V4.84521H68.9513V11.9257C68.9513 12.8984 68.7036 13.6479 68.2082 14.1742C67.7128 14.7004 67.0358 14.9636 66.177 14.9636C65.3514 14.9636 64.695 14.7124 64.2078 14.2101C63.7207 13.7077 63.4771 13.0021 63.4771 12.0931V4.84521H59.2662V12.5954C59.2662 14.3815 59.7327 15.7848 60.6657 16.8054C61.5987 17.8261 62.8578 18.3364 64.4431 18.3364C65.4835 18.3364 66.3958 18.1051 67.1802 17.6427C67.9646 17.1802 68.555 16.5583 68.9513 15.7769V18.1928ZM82.3769 4.67776C84.1604 4.67776 85.6548 5.15218 86.8603 6.10103C88.0658 7.04988 88.8254 8.35354 89.1392 10.012H84.6558C84.5237 9.43794 84.2512 8.99142 83.8384 8.67248C83.4255 8.35354 82.9054 8.19407 82.2779 8.19407C81.5347 8.19407 80.9238 8.47713 80.4449 9.04325C79.966 9.60937 79.7265 10.4346 79.7265 11.519C79.7265 12.6034 79.966 13.4287 80.4449 13.9948C80.9238 14.5609 81.5347 14.844 82.2779 14.844C82.9054 14.844 83.4255 14.6845 83.8384 14.3656C84.2512 14.0466 84.5237 13.6001 84.6558 13.026H89.1392C88.8254 14.6845 88.0658 15.9882 86.8603 16.937C85.6548 17.8859 84.1604 18.3603 82.3769 18.3603C81.0228 18.3603 79.8215 18.0852 78.7729 17.535C77.7243 16.9848 76.9027 16.1915 76.3082 15.1549C75.7138 14.1184 75.4165 12.9064 75.4165 11.519C75.4165 10.1157 75.7096 8.89973 76.2959 7.87115C76.8821 6.84256 77.7036 6.05319 78.7605 5.50302C79.8174 4.95285 81.0228 4.67776 82.3769 4.67776ZM99.1709 18.1929V14.6766H97.8333C97.3049 14.6766 96.9292 14.5729 96.7063 14.3656C96.4833 14.1583 96.3719 13.7915 96.3719 13.2653V8.28979H99.1461V4.84524H96.3719V1.56814H92.1362V4.84524H90.2784V8.28979H92.1362V13.1935C92.1362 14.9796 92.5862 16.2593 93.4861 17.0327C94.3861 17.8062 95.6453 18.1929 97.2636 18.1929H99.1709ZM105.784 0.491699V18.1929H101.549V0.491699H105.784ZM115.222 13.026L111.903 4.84521H107.172L112.968 17.6905L109.723 24.5557H114.38L123 4.84521H118.318L115.222 13.026Z" fill="#173A56"/>
    </symbol>
    <symbol id="arrow" viewBox="0 0 30 32">
      <path d="M28.108 14.342c1.303.721 1.303 2.594 0 3.316L3.486 31.286c-1.263.699-2.812-.214-2.812-1.658V2.372C.674.929 2.223.015 3.486.714l24.622 13.628z"/>
    </symbol>
    <symbol id="burger-menu" viewBox="0 0 40 32">
      <path fill="#173a56" d="M0 1.92C0 .86.86 0 1.92 0h35.84a1.92 1.92 0 0 1 0 3.84H1.92A1.92 1.92 0 0 1 0 1.92zM0 16c0-1.06.86-1.92 1.92-1.92h35.84a1.92 1.92 0 0 1 0 3.84H1.92A1.92 1.92 0 0 1 0 16zm1.92 12.16a1.92 1.92 0 0 0 0 3.84h35.84a1.92 1.92 0 0 0 0-3.84H1.92z" style="fill:var(--color1, #173a56)"/>
    </symbol>
    <symbol id="close" viewBox="0 0 31 32">
      <path d="M18.071 15.298 29.965 3.404c.774-.774.774-2.025 0-2.798s-2.025-.774-2.798 0L15.273 12.5 3.379.606c-.774-.774-2.025-.774-2.798 0s-.774 2.025 0 2.798l11.894 11.894L.581 27.192a1.976 1.976 0 0 0 0 2.798 1.974 1.974 0 0 0 2.798 0l11.894-11.894L27.167 29.99c.386.386.892.58 1.399.58s1.013-.194 1.399-.58a1.976 1.976 0 0 0 0-2.798L18.071 15.298z"/>
    </symbol>
    <symbol id="cursor" viewBox="0 0 23 32">
      <path d="M20.491 18.067 3.281.857a1.003 1.003 0 0 0-.756-.319c-.134 0-.286.034-.403.084a1.079 1.079 0 0 0-.672.992v25.277c0 .437.269.824.672.992.118.05.269.084.403.084.286 0 .555-.118.756-.319l5.244-5.244 3.21 7.597a1.08 1.08 0 0 0 1.412.571l2.975-1.261a1.08 1.08 0 0 0 .571-1.412l-3.378-8h6.42c.437 0 .824-.269.992-.672a1.038 1.038 0 0 0-.235-1.16z"/>
    </symbol>
    <symbol id="wave" viewBox="0 0 41 32">
      <path d="m21.673 12.898 2.674 1.245 3.98-1.184v-2.775c0-4.714-3.98-8.49-8.735-8.49-4.735 0-8.735 3.755-8.735 8.429v12.653c0 1.163-.939 2.082-2.082 2.082s-2.082-.918-2.082-2.082v-5.347H-.001v5.429a8.753 8.753 0 0 0 8.755 8.755c4.796 0 8.755-3.857 8.755-8.633V10.49c0-1.143.939-2.082 2.082-2.082s2.082.939 2.082 2.082v2.408zm10.817 4.531v5.612c0 1.143-.939 2.061-2.082 2.061s-2.082-.918-2.082-2.061v-5.51l-3.98 1.184-2.674-1.245v5.469c0 4.796 3.939 8.674 8.755 8.674a8.753 8.753 0 0 0 8.755-8.755v-5.429h-6.694z"/>
    </symbol>
    <symbol id="heart" viewBox="0 0 36 32">
      <path d="M18.312 30.172c.305 0 .61-.114.838-.343l11.867-11.428c.172-.171 4.362-4 4.362-8.571 0-5.581-3.41-8.914-9.105-8.914-3.333 0-6.457 2.629-7.962 4.114C16.807 3.544 13.683.916 10.35.916c-5.695 0-9.105 3.333-9.105 8.914 0 4.571 4.19 8.4 4.343 8.533L17.474 29.83c.229.229.533.343.838.343z"/>
    </symbol>
    <symbol id="clock" viewBox="0 0 28 32">
      <path d="M24.938 2.689h1.614a.531.531 0 0 0 .538-.538V1.075a.53.53 0 0 0-.538-.538H1.812a.53.53 0 0 0-.538.538v1.076a.53.53 0 0 0 .538.538h1.613c0 6.219 2.975 10.723 6.269 12.908-3.294 2.185-6.269 6.689-6.269 12.908H1.812a.53.53 0 0 0-.538.538v1.076c0 .302.235.538.538.538h24.74a.531.531 0 0 0 .538-.538v-1.076a.531.531 0 0 0-.538-.538h-1.614c0-6.219-2.975-10.723-6.269-12.908 3.294-2.185 6.269-6.689 6.269-12.908zm-2.152 0c0 2.454-.555 4.622-1.429 6.454H7.004c-.874-1.832-1.429-4-1.429-6.454h17.21zm-.957 20.437H6.535c1.244-3.244 3.479-5.546 5.714-6.454h3.866c2.235.908 4.471 3.21 5.714 6.454z"/>
    </symbol>
    <symbol id="mail" viewBox="0 0 32 32">
      <path fill="#fff" d="M32 16c0 8.837-7.163 16-16 16S0 24.837 0 16 7.163 0 16 0s16 7.163 16 16z" style="fill:var(--color2, #fff)"/>
      <path fill="#ff7b5b" d="M21.854 11.52H10.145a.825.825 0 0 0-.811.712L16 16.624l6.666-4.392a.826.826 0 0 0-.811-.712zM9.309 19.04v-5.824l4.511 2.972-4.511 2.852zm13.382 0-4.511-2.852 4.511-2.972v5.824zm-6.461-1.567 1.183-.78 5.251 3.32a.825.825 0 0 1-.81.706H10.145a.826.826 0 0 1-.81-.706l5.251-3.321 1.184.78a.418.418 0 0 0 .46 0z" style="fill:var(--color3, #ff7b5b)"/>
    </symbol>
    <symbol id="phone" viewBox="0 0 32 32">
      <path fill="#fff" d="M32 16c0 8.837-7.163 16-16 16S0 24.837 0 16 7.163 0 16 0s16 7.163 16 16z" style="fill:var(--color2, #fff)"/>
      <path fill="#ff7b5b" d="M19.647 18.773a4.733 4.733 0 0 1-1.71-.721c-.246-.174-.598-.153-.857.032l-1.488.783c-1.052-1.106-1.573-2.277-1.765-3.967l1.28-1.146c.295-.206.492-.557.512-.92a8.253 8.253 0 0 1 .409-2.206c.17-.52-.052-1.018-.494-1.11l-1.871-.391c-.442-.092-.94.255-1.11.775-1.982 6.062.602 11.871 5.76 12.948.442.092.94-.256 1.11-.775l.717-2.193c.17-.52-.052-1.018-.494-1.11z" style="fill:var(--color3, #ff7b5b)"/>
    </symbol>
  </defs>
</svg>
